# xmcd
# Track frame offsets:
# 150
# 8772
# 23965
# 28342
# 41007
# 54702
# 65950
# 84312
# 97257
# 109775
# 122690
# 135235
# 149090
# 162685
# 176515
# 188815
# 198432
# 209292
# 217530
# 227857
# 245332
# 264147
# 276110
# 293512
# 308355
#
# Disc length: 4254 seconds
# Revision: 0
# Processed by: cddbd v1.5.2PL0 Copyright (c) Steve Scherf et al.
# Submitted via: VisiTrax 2.10.3.257 - For more info visit www.synapsa.com
#
DISCID=69109c19
DTITLE=Various Artist - Country ChartBusters
DYEAR=1900
DGENRE=
TTITLE0=Roger Miller - England swings
TTITLE1=Anne Murray - Both sides now
TTITLE2=Charley Pride - Is anybody goin' to san antone
TTITLE3=Glen Campbell - By the time I get to phoenix
TTITLE4=Tammy Wynette - Stand by your man
TTITLE5=Don Gibson - Sea of heartbreak
TTITLE6=Johnny Cash - Orange blossom special
TTITLE7=Lynn Anderson - Top of the world
TTITLE8=Conway Twitty - I've already loved you in my mind
TTITLE9=Bobby Rice - You lay so easy on my mind
TTITLE10=Wanda Jackson - Crazy
TTITLE11=Johnny Carter - Tie a yellow ribbon (round the ole' oak tree)
TTITLE12=Johnny Cash - I walk the line
TTITLE13=Jeannie Seely - Don't touch me there
TTITLE14=Don Gibson - Just one time
TTITLE15=Charley Pride - Kiss an angel good morning
TTITLE16=Tammy Wynette - Womanhood
TTITLE17=Roger Miller - Do-wacka-do
TTITLE18=Connie Smith - once a day
TTITLE19=Glen Campbell - Southern nights
TTITLE20=Bobby Bare - Tequila shelia
TTITLE21=Skeeter Davis - The end of the world
TTITLE22=Johnny Cash - A boy named sue
TTITLE23=Marion Worth - Shake me I rattle (squeeze me I cry)
TTITLE24=Glen Campbell - Try a little kindness
EXTD=
EXTT0=
EXTT1=
EXTT2=
EXTT3=
EXTT4=
EXTT5=
EXTT6=
EXTT7=
EXTT8=
EXTT9=
EXTT10=
EXTT11=
EXTT12=
EXTT13=
EXTT14=
EXTT15=
EXTT16=
EXTT17=
EXTT18=
EXTT19=
EXTT20=
EXTT21=
EXTT22=
EXTT23=
EXTT24=
PLAYORDER=
